<svg width="81" height="81" viewBox="0 0 81 81" fill="none" xmlns="http://www.w3.org/2000/svg">
<path d="M54.7383 0C53.8647 0 53.1562 0.708434 53.1562 1.58203V8.85938C53.1562 9.73297 53.8647 10.4414 54.7383 10.4414C55.6119 10.4414 56.3203 9.73297 56.3203 8.85938V1.58203C56.3203 0.708434 55.6119 0 54.7383 0Z" fill="url(#paint0_linear_60:519)"/>
<path d="M18.3516 49.3594C17.4783 49.3594 16.7695 50.0681 16.7695 50.9414C16.7695 51.8147 17.4783 52.5234 18.3516 52.5234C19.2248 52.5234 19.9336 51.8147 19.9336 50.9414C19.9336 50.0681 19.2248 49.3594 18.3516 49.3594Z" fill="url(#paint1_linear_60:519)"/>
<path d="M76.8867 46.1953C76.8867 42.706 74.0479 39.8672 70.5586 39.8672H58.7484C60.5768 35.1839 61.3168 29.6715 61.1741 24.7645C61.1469 23.8281 61.111 23.2866 61.0625 22.9456C60.9807 19.5273 58.1738 16.7695 54.7383 16.7695C51.249 16.7695 48.4102 19.6083 48.4102 23.0977V24.6797C48.4102 34.6854 35.5618 40.3072 25.8656 42.7179C25.1325 41.0418 23.459 39.8672 21.5156 39.8672H5.69531C4.82171 39.8672 4.11328 40.5756 4.11328 41.4492V79.418C4.11328 80.2916 4.82171 81 5.69531 81H21.5156C23.446 81 25.1098 79.8408 25.8505 78.1826C26.6534 78.3885 27.3987 78.5831 28.0867 78.7629C33.6104 80.2055 36.6531 81 44.0532 81H61.0664C64.5557 81 67.3945 78.1612 67.3945 74.6719C67.3945 73.3708 66.9995 72.1606 66.3235 71.1538C68.7674 70.299 70.5586 67.9639 70.5586 65.1797C70.5586 63.8834 70.1732 62.6692 69.4993 61.6578C71.9324 60.8016 73.7227 58.4719 73.7227 55.6875C73.7227 54.3864 73.3276 53.1762 72.6516 52.1694C75.0955 51.3146 76.8867 48.9795 76.8867 46.1953ZM23.0977 76.2539C23.0977 77.1262 22.388 77.8359 21.5156 77.8359H7.27734V43.0312H21.5156C22.388 43.0312 23.0977 43.7409 23.0977 44.6133V76.2539ZM70.5586 49.3594C67.1653 49.3594 66.3564 49.3594 62.6484 49.3594C61.7748 49.3594 61.0664 50.0678 61.0664 50.9414C61.0664 51.815 61.7748 52.5234 62.6484 52.5234H67.3945C69.1392 52.5234 70.5586 53.9428 70.5586 55.6875C70.5586 57.435 69.142 58.8516 67.3945 58.8516H59.4844C58.6108 58.8516 57.9023 59.56 57.9023 60.4336C57.9023 61.3072 58.6108 62.0156 59.4844 62.0156H64.2305C65.9544 62.0156 67.3945 63.3928 67.3945 65.1797C67.3945 66.9272 65.978 68.3438 64.2305 68.3438C60.8372 68.3438 60.0283 68.3438 56.3203 68.3438C55.4467 68.3438 54.7383 69.0522 54.7383 69.9258C54.7383 70.7994 55.4467 71.5078 56.3203 71.5078H61.0664C62.8111 71.5078 64.2305 72.9272 64.2305 74.6719C64.2305 76.4165 62.8111 77.8359 61.0664 77.8359H44.0532C37.0596 77.8359 34.328 77.1226 28.8863 75.7015C28.0891 75.4933 27.2147 75.265 26.2617 75.022V45.8829C37.7106 43.1558 51.5742 36.4992 51.5742 24.6797V23.0977C51.5742 21.353 52.9936 19.9336 54.7383 19.9336C56.4798 19.9336 57.899 21.3508 57.9023 23.0928V23.0977C57.9023 23.7852 58.7604 32.2233 55.3195 39.8672H49.9922C49.1186 39.8672 48.4102 40.5756 48.4102 41.4492C48.4102 42.3228 49.1186 43.0312 49.9922 43.0312C51.0969 43.0312 68.7554 43.0312 70.5586 43.0312C72.3033 43.0312 73.7227 44.4506 73.7227 46.1953C73.7227 47.9428 72.3061 49.3594 70.5586 49.3594Z" fill="url(#paint2_linear_60:519)"/>
<path d="M18.3516 55.6875C17.478 55.6875 16.7695 56.3959 16.7695 57.2695V69.9258C16.7695 70.7994 17.478 71.5078 18.3516 71.5078C19.2252 71.5078 19.9336 70.7994 19.9336 69.9258V57.2695C19.9336 56.3959 19.2252 55.6875 18.3516 55.6875Z" fill="url(#paint3_linear_60:519)"/>
<path d="M42.082 19.9336H35.7539C34.8803 19.9336 34.1719 20.642 34.1719 21.5156C34.1719 22.3892 34.8803 23.0977 35.7539 23.0977H42.082C42.9556 23.0977 43.6641 22.3892 43.6641 21.5156C43.6641 20.642 42.9556 19.9336 42.082 19.9336Z" fill="url(#paint4_linear_60:519)"/>
<path d="M73.7227 19.9336H67.3945C66.5209 19.9336 65.8125 20.642 65.8125 21.5156C65.8125 22.3892 66.5209 23.0977 67.3945 23.0977H73.7227C74.5963 23.0977 75.3047 22.3892 75.3047 21.5156C75.3047 20.642 74.5963 19.9336 73.7227 19.9336Z" fill="url(#paint5_linear_60:519)"/>
<path d="M69.2803 6.97347C68.6624 6.35585 67.661 6.35585 67.0429 6.97347L62.5691 11.4473C61.9513 12.0651 61.9513 13.0668 62.5691 13.6848C63.1872 14.3025 64.1884 14.3024 64.8065 13.6848L69.2803 9.21094C69.8981 8.59316 69.8981 7.59141 69.2803 6.97347Z" fill="url(#paint6_linear_60:519)"/>
<path d="M46.9073 11.4473L42.4335 6.97347C41.8155 6.35585 40.8141 6.35585 40.196 6.97347C39.5782 7.59126 39.5782 8.593 40.196 9.21094L44.6698 13.6848C45.2881 14.3025 46.2894 14.3024 46.9073 13.6848C47.5251 13.067 47.5251 12.0652 46.9073 11.4473Z" fill="url(#paint7_linear_60:519)"/>
<defs>
<linearGradient id="paint0_linear_60:519" x1="54.7383" y1="0" x2="54.7383" y2="10.4414" gradientUnits="userSpaceOnUse">
<stop stop-color="#A60293"/>
<stop offset="1" stop-color="#FF593E"/>
</linearGradient>
<linearGradient id="paint1_linear_60:519" x1="18.3516" y1="49.3594" x2="18.3516" y2="52.5234" gradientUnits="userSpaceOnUse">
<stop stop-color="#A60293"/>
<stop offset="1" stop-color="#FF593E"/>
</linearGradient>
<linearGradient id="paint2_linear_60:519" x1="40.5" y1="16.7695" x2="40.5" y2="81" gradientUnits="userSpaceOnUse">
<stop stop-color="#A60293"/>
<stop offset="1" stop-color="#FF593E"/>
</linearGradient>
<linearGradient id="paint3_linear_60:519" x1="18.3516" y1="55.6875" x2="18.3516" y2="71.5078" gradientUnits="userSpaceOnUse">
<stop stop-color="#A60293"/>
<stop offset="1" stop-color="#FF593E"/>
</linearGradient>
<linearGradient id="paint4_linear_60:519" x1="38.918" y1="19.9336" x2="38.918" y2="23.0977" gradientUnits="userSpaceOnUse">
<stop stop-color="#A60293"/>
<stop offset="1" stop-color="#FF593E"/>
</linearGradient>
<linearGradient id="paint5_linear_60:519" x1="70.5586" y1="19.9336" x2="70.5586" y2="23.0977" gradientUnits="userSpaceOnUse">
<stop stop-color="#A60293"/>
<stop offset="1" stop-color="#FF593E"/>
</linearGradient>
<linearGradient id="paint6_linear_60:519" x1="65.9247" y1="6.51025" x2="65.9247" y2="14.148" gradientUnits="userSpaceOnUse">
<stop stop-color="#A60293"/>
<stop offset="1" stop-color="#FF593E"/>
</linearGradient>
<linearGradient id="paint7_linear_60:519" x1="43.5517" y1="6.51025" x2="43.5517" y2="14.148" gradientUnits="userSpaceOnUse">
<stop stop-color="#A60293"/>
<stop offset="1" stop-color="#FF593E"/>
</linearGradient>
</defs>
</svg>
